<?xml version="1.0" encoding="UTF-8"?>
<svg id="Camada_2" data-name="Camada 2" xmlns="http://www.w3.org/2000/svg" viewBox="0 0 314.24 110.65">
  <defs>
    <style>
      .cls-1 {
        fill: #706f6f;
      }

      .cls-1, .cls-2, .cls-3, .cls-4 {
        stroke-width: 0px;
      }

      .cls-2 {
        fill: #1d1d1b;
      }

      .cls-3 {
        fill: #fff;
      }

      .cls-4 {
        fill: #e3e3e2;
      }
    </style>
  </defs>
  <g id="Header">
    <g>
      <g>
        <circle class="cls-1" cx="7.88" cy="83.16" r="6.62"/>
        <path class="cls-2" d="m7.88,91.04c-4.34,0-7.88-3.53-7.88-7.88s3.53-7.88,7.88-7.88,7.88,3.53,7.88,7.88-3.53,7.88-7.88,7.88Zm0-13.23c-2.95,0-5.35,2.4-5.35,5.35s2.4,5.35,5.35,5.35,5.35-2.4,5.35-5.35-2.4-5.35-5.35-5.35Z"/>
        <g>
          <path class="cls-3" d="m56.43,1.26H24.24c-8.79,0-15.91,7.12-15.91,15.91v76.31c0,8.79,7.12,15.91,15.91,15.91h45.92c8.79,0,15.91-7.12,15.91-15.91V30.9L56.43,1.26Z"/>
          <path class="cls-2" d="m70.16,110.65H24.24c-9.47,0-17.17-7.7-17.17-17.17V17.17C7.07,7.7,14.77,0,24.24,0h32.19c.33,0,.66.13.89.37l29.64,29.64c.24.24.37.56.37.89v62.58c0,9.47-7.7,17.17-17.17,17.17ZM24.24,2.53c-8.07,0-14.64,6.57-14.64,14.64v76.31c0,8.07,6.57,14.64,14.64,14.64h45.92c8.07,0,14.64-6.57,14.64-14.64V31.43L55.91,2.53h-31.67Z"/>
        </g>
        <g>
          <path class="cls-4" d="m56.43,1.26l29.64,29.64h-23.32c-3.49,0-6.32-2.83-6.32-6.32V1.26Z"/>
          <path class="cls-2" d="m86.07,32.17s0,0,0,0h-23.32c-4.18,0-7.58-3.4-7.58-7.58V1.26c0-.51.31-.97.78-1.17.47-.2,1.02-.09,1.38.27l29.58,29.58c.26.23.43.57.43.95,0,.7-.57,1.26-1.26,1.26ZM57.69,4.31v20.27c0,2.79,2.27,5.06,5.06,5.06h20.27L57.69,4.31Z"/>
        </g>
        <path class="cls-1" d="m8.48,45.01c-3.93,0-7.11,3.19-7.11,7.11v29.79h.13c.63-3.28,3.52-5.76,6.98-5.76h71.65v-31.15H8.48Z"/>
        <path class="cls-2" d="m1.5,83.18h-.13c-.7,0-1.26-.57-1.26-1.26v-29.79c0-4.62,3.76-8.38,8.38-8.38h71.65c.7,0,1.26.57,1.26,1.26v31.15c0,.7-.57,1.26-1.26,1.26H8.48c-2.8,0-5.21,1.99-5.74,4.74-.11.59-.64,1.02-1.24,1.02Zm6.98-36.91c-3.23,0-5.85,2.62-5.85,5.85v25.15c1.52-1.49,3.6-2.38,5.85-2.38h70.38v-28.62H8.48Z"/>
        <g>
          <path class="cls-3" d="m20.42,52.94c0-.53.43-.96.93-.96h5.33c3.78,0,6.27,2.01,6.27,5.31v.05c0,3.61-3.01,5.48-6.58,5.48h-4.07v5.07c0,.53-.43.96-.96.96s-.93-.43-.93-.96v-14.95Zm6.03,8.16c2.77,0,4.59-1.48,4.59-3.68v-.05c0-2.39-1.79-3.64-4.5-3.64h-4.23v7.37h4.14Z"/>
          <path class="cls-3" d="m36.4,52.94c0-.53.43-.96.93-.96h4.88c5.26,0,8.9,3.61,8.9,8.32v.05c0,4.71-3.64,8.37-8.9,8.37h-4.88c-.5,0-.93-.43-.93-.96v-14.83Zm5.81,14.04c4.23,0,6.94-2.87,6.94-6.58v-.05c0-3.71-2.7-6.63-6.94-6.63h-3.92v13.25h3.92Z"/>
          <path class="cls-3" d="m55.11,52.94c0-.53.43-.96.93-.96h10.36c.48,0,.86.38.86.86s-.38.88-.86.88h-9.4v5.98h8.32c.48,0,.86.38.86.86s-.38.86-.86.86h-8.32v6.46c0,.53-.43.96-.96.96s-.93-.43-.93-.96v-14.95Z"/>
        </g>
      </g>
      <g>
        <path class="cls-1" d="m120.31,47.06l-.5-1.68h-4.71l-.5,1.68c-.09.32-.24.47-.47.47h-3.54c-.12,0-.23-.04-.33-.13-.1-.08-.15-.2-.15-.35l4.71-15.55c.08-.33.24-.5.47-.5h4.36c.23,0,.39.17.47.5l4.67,15.55c0,.14-.05.25-.15.34-.1.09-.21.13-.33.13h-3.55c-.23,0-.39-.16-.47-.47Zm-2.83-9.74l-1.18,3.95h2.31l-1.13-3.95Z"/>
        <path class="cls-1" d="m134.13,47.06l-1.49-3.04c-.12.02-.32.03-.6.03h-1.03v3.01c0,.14-.05.25-.15.34-.1.09-.21.13-.33.13h-3.55c-.33,0-.5-.16-.5-.47v-15.55c0-.15.05-.28.16-.37s.22-.13.34-.13h5.05c.85,0,1.63.1,2.34.3.71.2,1.28.46,1.7.79.43.33.8.68,1.13,1.08.33.39.56.79.71,1.19s.27.76.35,1.09c.08.33.13.59.13.79l.03.29v1.96c0,.2-.02.45-.06.76s-.23.82-.55,1.55c-.33.73-.77,1.33-1.34,1.82l2.18,4.43c0,.32-.17.47-.5.47h-3.52c-.2,0-.36-.16-.5-.47Zm-2.09-11.75h-1.03v4.43h1.03c1.22,0,1.83-.61,1.83-1.82v-.81c0-1.2-.61-1.81-1.83-1.81Z"/>
        <path class="cls-1" d="m148.11,47.06l-1.49-3.04c-.12.02-.32.03-.6.03h-1.03v3.01c0,.14-.05.25-.15.34-.1.09-.21.13-.33.13h-3.55c-.33,0-.5-.16-.5-.47v-15.55c0-.15.05-.28.16-.37s.22-.13.34-.13h5.05c.85,0,1.63.1,2.34.3.71.2,1.28.46,1.7.79.43.33.8.68,1.13,1.08.33.39.56.79.71,1.19s.27.76.35,1.09c.08.33.13.59.13.79l.03.29v1.96c0,.2-.02.45-.06.76s-.23.82-.55,1.55c-.33.73-.77,1.33-1.34,1.82l2.18,4.43c0,.32-.17.47-.5.47h-3.52c-.2,0-.36-.16-.5-.47Zm-2.09-11.75h-1.03v4.43h1.03c1.22,0,1.83-.61,1.83-1.82v-.81c0-1.2-.61-1.81-1.83-1.81Z"/>
        <path class="cls-1" d="m164.26,47.06l-.5-1.68h-4.71l-.5,1.68c-.09.32-.24.47-.47.47h-3.54c-.12,0-.23-.04-.33-.13-.1-.08-.15-.2-.15-.35l4.71-15.55c.08-.33.24-.5.47-.5h4.36c.23,0,.39.17.47.5l4.67,15.55c0,.14-.05.25-.15.34-.1.09-.21.13-.33.13h-3.55c-.23,0-.39-.16-.47-.47Zm-2.83-9.74l-1.18,3.95h2.31l-1.13-3.95Z"/>
        <path class="cls-1" d="m172.3,42.34c1.14.89,2.47,1.34,4.01,1.35,1.15,0,1.73-.31,1.73-.92,0-.38-.27-.71-.81-.97-.54-.26-1.2-.5-1.97-.72s-1.54-.49-2.31-.83-1.42-.87-1.97-1.6c-.54-.73-.81-1.64-.81-2.73,0-1.72.56-3,1.67-3.85,1.11-.85,2.55-1.28,4.32-1.28,1.05,0,1.93.08,2.63.24s1.49.46,2.36.92c.15.07.23.18.23.35,0,.05-.03.16-.08.32l-1.13,2.54c-.08.15-.2.24-.33.24l-.32-.08c-.85-.3-1.9-.45-3.13-.45-1.14,0-1.7.28-1.7.83,0,.32.19.58.58.79.38.21.87.38,1.45.5s1.22.32,1.9.58c.68.26,1.32.57,1.9.92s1.07.88,1.46,1.6c.39.72.58,1.57.58,2.55,0,.28-.03.58-.1.91-.06.33-.22.74-.47,1.26s-.59.97-1.01,1.38-1.05.76-1.88,1.06c-.83.3-1.8.47-2.92.51-.1,0-.24,0-.4-.01-.17,0-.5-.05-1-.12-.5-.07-.98-.17-1.43-.29-.46-.12-.97-.32-1.55-.59-.58-.27-1.07-.6-1.49-.98-.15-.14-.23-.27-.23-.4,0-.08.03-.17.08-.26l1.5-2.6c.08-.15.22-.24.41-.24.09,0,.17.03.24.08Z"/>
        <path class="cls-1" d="m187.26,34.87h-3.46c-.14,0-.25-.05-.34-.15-.09-.1-.13-.21-.13-.33v-2.88c0-.33.16-.5.47-.5h11.44c.32,0,.47.17.47.5v2.88c0,.12-.04.23-.13.33s-.2.15-.34.15h-3.47v12.2c0,.14-.05.25-.14.34s-.2.13-.32.13h-3.55c-.33,0-.5-.16-.5-.47v-12.2Z"/>
        <path class="cls-1" d="m202.05,43.53h5.76c.14,0,.25.05.34.14.09.09.13.2.13.33v3.04c0,.33-.16.5-.47.5h-9.79c-.12,0-.23-.04-.34-.13s-.16-.21-.16-.37v-15.53c0-.15.05-.28.16-.37s.22-.13.34-.13h9.79c.32,0,.47.17.47.5v3.04c0,.12-.04.23-.13.33-.09.1-.2.15-.35.15h-5.76v2.52h4.64c.32,0,.47.17.47.5v2.73c0,.12-.04.23-.13.32-.08.09-.2.14-.35.14h-4.64v2.29Z"/>
        <path class="cls-1" d="m225.41,47.06l-.5-1.68h-4.71l-.5,1.68c-.09.32-.24.47-.47.47h-3.54c-.12,0-.23-.04-.33-.13-.1-.08-.15-.2-.15-.35l4.71-15.55c.08-.33.24-.5.47-.5h4.36c.23,0,.39.17.47.5l4.67,15.55c0,.14-.05.25-.15.34-.1.09-.21.13-.33.13h-3.55c-.23,0-.39-.16-.47-.47Zm-2.83-9.74l-1.18,3.95h2.31l-1.13-3.95Z"/>
        <path class="cls-1" d="m237.17,50.24l-1.22-2.58c-.7-.08-1.33-.25-1.89-.51s-1.01-.54-1.36-.86c-.35-.33-.65-.67-.9-1.05s-.44-.74-.56-1.09-.22-.67-.29-.97-.11-.53-.13-.7v-6.14c0-.15.01-.35.04-.6.03-.25.16-.69.39-1.33.23-.64.55-1.2.96-1.68.41-.48,1.04-.92,1.92-1.33.87-.41,1.9-.61,3.1-.61.85,0,1.64.1,2.34.3.71.2,1.28.46,1.7.79.43.33.8.68,1.13,1.08.32.39.56.79.71,1.2.15.41.27.77.35,1.09.08.32.14.59.15.8v6.16c0,.1,0,.24-.03.4-.02.17-.09.48-.21.95-.12.47-.29.9-.5,1.3-.21.4-.55.83-1,1.28-.45.45-1,.8-1.63,1.06l1.42,3.05c0,.32-.17.47-.5.47h-3.52c-.19,0-.35-.16-.49-.47Zm.04-6.79c1.23,0,1.84-.61,1.84-1.82v-4.71c0-1.2-.61-1.81-1.84-1.81-1.23,0-1.84.6-1.84,1.81v4.71c0,1.21.61,1.82,1.84,1.82Z"/>
        <path class="cls-1" d="m252.37,47.74c-.85,0-1.64-.1-2.34-.3-.71-.2-1.28-.46-1.7-.78-.43-.32-.8-.68-1.13-1.09-.32-.41-.56-.8-.71-1.2s-.27-.75-.36-1.08c-.09-.32-.14-.59-.16-.79v-11.02c0-.32.17-.47.5-.47h3.55c.12,0,.23.04.33.13.1.08.15.2.15.35v10.15c0,1.2.63,1.81,1.89,1.81s1.89-.6,1.89-1.81v-10.15c0-.14.05-.25.14-.34.09-.09.2-.13.32-.13h3.55c.33,0,.5.16.5.47v10.72c0,.15-.01.35-.04.6-.03.25-.16.69-.4,1.33-.24.64-.56,1.2-.96,1.68-.4.48-1.04.92-1.92,1.32-.88.4-1.91.6-3.09.6Z"/>
        <path class="cls-1" d="m265.91,31.51v15.55c0,.14-.05.25-.15.34-.1.09-.21.13-.33.13h-3.55c-.33,0-.5-.16-.5-.47v-15.55c0-.15.05-.28.16-.37s.22-.13.34-.13h3.55c.12,0,.23.05.33.15.1.1.15.22.15.35Z"/>
        <path class="cls-1" d="m275.58,42.34c1.14.89,2.47,1.34,4.01,1.35,1.15,0,1.73-.31,1.73-.92,0-.38-.27-.71-.81-.97-.54-.26-1.2-.5-1.97-.72s-1.54-.49-2.31-.83-1.42-.87-1.97-1.6c-.54-.73-.81-1.64-.81-2.73,0-1.72.56-3,1.67-3.85,1.11-.85,2.55-1.28,4.32-1.28,1.05,0,1.93.08,2.63.24s1.49.46,2.36.92c.15.07.23.18.23.35,0,.05-.03.16-.08.32l-1.13,2.54c-.08.15-.2.24-.33.24l-.32-.08c-.85-.3-1.9-.45-3.13-.45-1.14,0-1.7.28-1.7.83,0,.32.19.58.58.79.38.21.87.38,1.45.5s1.22.32,1.9.58c.68.26,1.32.57,1.9.92s1.07.88,1.46,1.6c.39.72.58,1.57.58,2.55,0,.28-.03.58-.1.91-.06.33-.22.74-.47,1.26s-.59.97-1.01,1.38-1.05.76-1.88,1.06c-.83.3-1.8.47-2.92.51-.1,0-.24,0-.4-.01-.17,0-.5-.05-1-.12-.5-.07-.98-.17-1.43-.29-.46-.12-.97-.32-1.55-.59-.58-.27-1.07-.6-1.49-.98-.15-.14-.23-.27-.23-.4,0-.08.03-.17.08-.26l1.5-2.6c.08-.15.22-.24.41-.24.09,0,.17.03.24.08Z"/>
        <path class="cls-1" d="m292.44,43.53h5.76c.14,0,.25.05.34.14.09.09.13.2.13.33v3.04c0,.33-.16.5-.47.5h-9.79c-.12,0-.23-.04-.34-.13s-.16-.21-.16-.37v-15.53c0-.15.05-.28.16-.37s.22-.13.34-.13h9.79c.32,0,.47.17.47.5v3.04c0,.12-.04.23-.13.33-.09.1-.2.15-.35.15h-5.76v2.52h4.64c.32,0,.47.17.47.5v2.73c0,.12-.04.23-.13.32-.08.09-.2.14-.35.14h-4.64v2.29Z"/>
        <path class="cls-1" d="m307.7,47.74c-.85,0-1.64-.1-2.34-.3-.71-.2-1.28-.46-1.7-.78-.43-.32-.8-.68-1.13-1.09-.32-.41-.56-.8-.71-1.2s-.27-.75-.36-1.08c-.09-.32-.14-.59-.16-.79v-11.02c0-.32.17-.47.5-.47h3.55c.12,0,.23.04.33.13.1.08.15.2.15.35v10.15c0,1.2.63,1.81,1.89,1.81s1.89-.6,1.89-1.81v-10.15c0-.14.05-.25.14-.34.09-.09.2-.13.32-.13h3.55c.33,0,.5.16.5.47v10.72c0,.15-.01.35-.04.6-.03.25-.16.69-.4,1.33-.24.64-.56,1.2-.96,1.68-.4.48-1.04.92-1.92,1.32-.88.4-1.91.6-3.09.6Z"/>
        <path class="cls-1" d="m116.12,68.35v4.05c0,.75.3,1.3.89,1.64.59.34,1.26.51,1.99.51.38,0,.94-.08,1.68-.25.73-.17,1.17-.26,1.31-.28.17,0,.29.08.37.23.38,2.03.58,3.16.58,3.38,0,.14-.08.25-.26.35-1.14.58-2.64.87-4.52.86-.85,0-1.64-.1-2.36-.3-.72-.2-1.29-.46-1.73-.78-.44-.32-.82-.68-1.17-1.09-.34-.41-.6-.8-.76-1.2-.17-.39-.3-.75-.4-1.08-.1-.32-.16-.59-.17-.79l-.03-.29v-5.87c0-.07,0-.17.03-.31.02-.14.08-.4.19-.78s.24-.74.4-1.09.41-.73.75-1.17c.34-.43.73-.8,1.17-1.1s1.01-.56,1.73-.78c.72-.21,1.5-.32,2.36-.32,1.87,0,3.38.29,4.52.87.17.09.26.2.26.35,0,.23-.19,1.36-.58,3.38-.07.15-.19.23-.37.23-.14-.02-.57-.11-1.31-.28-.74-.17-1.29-.25-1.68-.25-.73,0-1.4.17-1.99.51-.59.34-.89.89-.89,1.64Z"/>
        <path class="cls-1" d="m131.82,78.84c-.85,0-1.64-.1-2.34-.3-.71-.2-1.28-.46-1.7-.78-.43-.32-.8-.68-1.13-1.09-.32-.41-.56-.8-.71-1.2s-.27-.75-.36-1.08c-.09-.32-.14-.59-.16-.79v-11.02c0-.32.17-.47.5-.47h3.55c.12,0,.23.04.33.13.1.08.15.2.15.35v10.15c0,1.2.63,1.81,1.89,1.81s1.89-.6,1.89-1.81v-10.15c0-.14.05-.25.14-.34.09-.09.2-.13.32-.13h3.55c.33,0,.5.16.5.47v10.72c0,.15-.01.35-.04.6-.03.25-.16.69-.4,1.33-.24.64-.56,1.2-.96,1.68-.4.48-1.04.92-1.92,1.32-.88.4-1.91.6-3.09.6Z"/>
        <path class="cls-1" d="m148.48,78.16l-1.49-3.04c-.12.02-.32.03-.6.03h-1.03v3.01c0,.14-.05.25-.15.34-.1.09-.21.13-.33.13h-3.55c-.33,0-.5-.16-.5-.47v-15.55c0-.15.05-.28.16-.37s.22-.13.34-.13h5.05c.85,0,1.63.1,2.34.3.71.2,1.28.46,1.7.79.43.33.8.68,1.13,1.08.33.39.56.79.71,1.19s.27.76.35,1.09c.08.33.13.59.13.79l.03.29v1.96c0,.2-.02.45-.06.76s-.23.82-.55,1.55c-.33.73-.77,1.33-1.34,1.82l2.18,4.43c0,.32-.17.47-.5.47h-3.52c-.2,0-.36-.16-.5-.47Zm-2.09-11.75h-1.03v4.43h1.03c1.22,0,1.83-.61,1.83-1.82v-.81c0-1.2-.61-1.81-1.83-1.81Z"/>
        <path class="cls-1" d="m162.45,78.16l-1.49-3.04c-.12.02-.32.03-.6.03h-1.03v3.01c0,.14-.05.25-.15.34-.1.09-.21.13-.33.13h-3.55c-.33,0-.5-.16-.5-.47v-15.55c0-.15.05-.28.16-.37s.22-.13.34-.13h5.05c.85,0,1.63.1,2.34.3.71.2,1.28.46,1.7.79.43.33.8.68,1.13,1.08.33.39.56.79.71,1.19s.27.76.35,1.09c.08.33.13.59.13.79l.03.29v1.96c0,.2-.02.45-.06.76s-.23.82-.55,1.55c-.33.73-.77,1.33-1.34,1.82l2.18,4.43c0,.32-.17.47-.5.47h-3.52c-.2,0-.36-.16-.5-.47Zm-2.09-11.75h-1.03v4.43h1.03c1.22,0,1.83-.61,1.83-1.82v-.81c0-1.2-.61-1.81-1.83-1.81Z"/>
        <path class="cls-1" d="m168.79,78.16v-15.55c0-.14.05-.25.15-.35s.21-.15.33-.15h3.55c.12,0,.23.04.34.13.11.08.16.21.16.37v15.55c0,.32-.17.47-.5.47h-3.55c-.12,0-.23-.04-.33-.13-.1-.09-.15-.2-.15-.34Zm5.93-20.75l-1.93,3.05c-.2.32-.4.47-.6.47h-2.18c-.33,0-.5-.16-.5-.47l1.31-3.05c.15-.33.35-.5.58-.5h2.86c.12,0,.23.05.33.15.1.1.15.22.15.35Z"/>
        <path class="cls-1" d="m180.37,68.35v4.05c0,.75.3,1.3.89,1.64.59.34,1.26.51,1.99.51.38,0,.94-.08,1.68-.25.73-.17,1.17-.26,1.31-.28.17,0,.29.08.37.23.38,2.03.58,3.16.58,3.38,0,.14-.08.25-.26.35-1.14.58-2.64.87-4.52.86-.85,0-1.64-.1-2.36-.3-.72-.2-1.29-.46-1.73-.78-.44-.32-.82-.68-1.17-1.09-.34-.41-.6-.8-.76-1.2-.17-.39-.3-.75-.4-1.08-.1-.32-.16-.59-.17-.79l-.03-.29v-5.87c0-.07,0-.17.03-.31.02-.14.08-.4.19-.78s.24-.74.4-1.09.41-.73.75-1.17c.34-.43.73-.8,1.17-1.1s1.01-.56,1.73-.78c.72-.21,1.5-.32,2.36-.32,1.87,0,3.38.29,4.52.87.17.09.26.2.26.35,0,.23-.19,1.36-.58,3.38-.07.15-.19.23-.37.23-.14-.02-.57-.11-1.31-.28-.74-.17-1.29-.25-1.68-.25-.73,0-1.4.17-1.99.51-.59.34-.89.89-.89,1.64Z"/>
        <path class="cls-1" d="m196.08,78.84c-.85,0-1.64-.1-2.34-.3-.71-.2-1.28-.46-1.7-.78-.43-.32-.8-.68-1.13-1.09-.32-.41-.56-.8-.71-1.2s-.27-.75-.36-1.08c-.09-.32-.14-.59-.16-.79v-11.02c0-.32.17-.47.5-.47h3.55c.12,0,.23.04.33.13.1.08.15.2.15.35v10.15c0,1.2.63,1.81,1.89,1.81s1.89-.6,1.89-1.81v-10.15c0-.14.05-.25.14-.34.09-.09.2-.13.32-.13h3.55c.33,0,.5.16.5.47v10.72c0,.15-.01.35-.04.6-.03.25-.16.69-.4,1.33-.24.64-.56,1.2-.96,1.68-.4.48-1.04.92-1.92,1.32-.88.4-1.91.6-3.09.6Z"/>
        <path class="cls-1" d="m209.87,62.59v12.2h5.78c.14,0,.25.05.34.14.09.09.13.21.13.33v2.88c0,.33-.16.5-.47.5h-9.79c-.12,0-.23-.04-.34-.13-.11-.08-.16-.21-.16-.37v-15.55c0-.32.17-.47.5-.47h3.54c.12,0,.23.04.33.13.1.09.15.2.15.34Z"/>
        <path class="cls-1" d="m224.36,61.89c.85,0,1.64.1,2.34.3.71.2,1.28.46,1.7.79.43.33.8.68,1.13,1.08.32.39.56.79.71,1.2.15.41.27.77.35,1.09.08.32.14.59.15.8v6.16c0,.15-.01.35-.04.6-.03.25-.16.69-.39,1.33-.24.64-.55,1.2-.96,1.68-.4.48-1.04.92-1.92,1.32-.88.4-1.91.6-3.09.6-.85,0-1.64-.1-2.35-.3-.71-.2-1.28-.46-1.71-.78-.43-.32-.8-.68-1.13-1.09-.33-.41-.56-.8-.71-1.2s-.27-.75-.35-1.08c-.08-.32-.14-.59-.15-.79v-6.16c0-.15.01-.35.04-.6.03-.25.16-.69.39-1.33.23-.64.55-1.2.96-1.68.41-.48,1.05-.92,1.92-1.33.88-.41,1.91-.61,3.09-.61Zm0,12.66c1.23,0,1.84-.61,1.84-1.82v-4.71c0-1.2-.61-1.81-1.84-1.81-1.23,0-1.84.6-1.84,1.81v4.71c0,1.21.61,1.82,1.84,1.82Z"/>
        <path class="cls-1" d="m242.85,74.63h5.76c.14,0,.25.05.34.14.09.09.13.2.13.33v3.04c0,.33-.16.5-.47.5h-9.79c-.12,0-.23-.04-.34-.13s-.16-.21-.16-.37v-15.53c0-.15.05-.28.16-.37s.22-.13.34-.13h9.79c.32,0,.47.17.47.5v3.04c0,.12-.04.23-.13.33-.09.1-.2.15-.35.15h-5.76v2.52h4.64c.32,0,.47.17.47.5v2.73c0,.12-.04.23-.13.32-.08.09-.2.14-.35.14h-4.64v2.29Z"/>
        <path class="cls-1" d="m260.76,75.06h-2.31c-.21,0-.41-.15-.6-.46l-1.63-4.02v7.58c0,.14-.05.25-.15.34-.1.09-.21.13-.33.13h-3.55c-.33,0-.5-.16-.5-.47v-15.55c0-.15.05-.28.16-.37s.22-.13.34-.13h3.57c.21,0,.41.17.6.5l3.23,7.97,3.23-7.97c.2-.33.4-.5.6-.5h3.56c.12,0,.23.04.34.13.11.08.16.21.16.37v15.55c0,.32-.17.47-.5.47h-3.54c-.12,0-.23-.04-.33-.13-.1-.08-.15-.2-.15-.35v-7.58l-1.63,4.02c-.19.31-.39.46-.6.46Z"/>
        <path class="cls-1" d="m275.82,62.11h5.05c.85,0,1.63.1,2.34.3.71.2,1.28.46,1.7.79.43.33.8.68,1.13,1.08.33.39.56.79.71,1.19s.27.76.35,1.09c.08.33.13.59.13.79l.03.29v1.96c0,.15-.01.35-.04.6-.03.25-.16.69-.39,1.33s-.55,1.2-.95,1.68c-.4.48-1.04.92-1.92,1.33-.88.41-1.91.61-3.09.61h-1.03v3.01c0,.14-.05.25-.15.34-.1.09-.21.13-.33.13h-3.55c-.33,0-.5-.16-.5-.47v-15.55c0-.15.05-.28.16-.37s.22-.13.34-.13Zm5.05,4.3h-1.03v4.43h1.03c1.22,0,1.83-.61,1.83-1.82v-.81c0-1.2-.61-1.81-1.83-1.81Z"/>
        <path class="cls-1" d="m289.85,62.11h4.88c.85,0,1.64.1,2.34.3.71.2,1.28.46,1.71.79.43.33.81.68,1.13,1.08.32.39.56.79.7,1.19.15.4.26.76.35,1.09.09.33.13.59.13.79l.03.29v5.46c0,.15-.01.35-.04.6-.03.25-.16.69-.39,1.33-.24.64-.56,1.2-.96,1.68-.41.48-1.04.92-1.92,1.33-.87.4-1.9.6-3.1.6h-4.88c-.33,0-.5-.16-.5-.47v-15.55c0-.15.05-.28.16-.37s.22-.13.34-.13Zm4.88,4.3h-.86v7.92h.86c1.22,0,1.84-.6,1.84-1.81v-4.3c0-1.2-.62-1.81-1.84-1.81Z"/>
        <path class="cls-1" d="m312.64,72.78h-4.64v5.38c0,.14-.05.25-.15.34-.1.09-.21.13-.33.13h-3.55c-.33,0-.5-.16-.5-.47v-15.55c0-.15.05-.28.16-.37s.22-.13.34-.13h9.79c.32,0,.47.17.47.5v3.04c0,.12-.04.23-.13.33-.09.1-.2.15-.35.15h-5.76v2.97h4.64c.32,0,.47.16.47.49v2.73c0,.12-.04.23-.13.33-.09.1-.2.15-.34.15Z"/>
      </g>
    </g>
  </g>
</svg>