<?xml version="1.0" encoding="UTF-8"?>
<svg id="Camada_2" data-name="Camada 2" xmlns="http://www.w3.org/2000/svg" viewBox="0 0 326.69 110.65">
  <defs>
    <style>
      .cls-1 {
        fill: #589c95;
      }

      .cls-1, .cls-2, .cls-3 {
        stroke-width: 0px;
      }

      .cls-2 {
        fill: #386539;
      }

      .cls-3 {
        fill: #fff;
      }
    </style>
  </defs>
  <g id="Header">
    <g>
      <path class="cls-1" d="m7.07,77.88v10.56c-2.57-.38-4.54-2.61-4.54-5.28,0-.19.01-.38.03-.57h0s0-.02.01-.02c.08-.13.14-.25.17-.41.22-1.11.74-2.11,1.48-2.89h.01c.77-.73,1.75-1.23,2.84-1.39Z"/>
      <path class="cls-2" d="m87.31,30.66c-.04-.16-.1-.32-.19-.46-.05-.06-.1-.13-.16-.19-.01-.02-.03-.04-.05-.06L57.33.37c-.25-.24-.57-.37-.9-.37H24.24C14.78,0,7.07,7.7,7.07,17.17v26.7C3.12,44.54.1,47.99.1,52.13v29.79c-.07.41-.1.82-.1,1.24,0,4.07,3.11,7.43,7.07,7.84v2.48c0,9.47,7.71,17.17,17.17,17.17h45.92c9.47,0,17.17-7.7,17.17-17.17V30.9c0-.08-.01-.16-.02-.24ZM57.7,4.32l25.32,25.32h-20.27c-2.79,0-5.05-2.27-5.05-5.06V4.32ZM7.07,88.44c-2.57-.38-4.54-2.61-4.54-5.28,0-.19.01-.38.03-.57h0s0-.02.01-.02c.08-.13.14-.25.17-.41.22-1.11.74-2.11,1.48-2.89h.01c.77-.73,1.75-1.23,2.84-1.39v10.56Zm0-13.42c-1.7.29-3.24,1.09-4.44,2.26v-25.15c0-2.74,1.9-5.04,4.44-5.67.41-.11.83-.17,1.27-.17.05,0,.09,0,.14,0h70.39v28.62H8.34c-.43,0-.86.05-1.27.12Zm77.74,18.46c0,8.07-6.57,14.64-14.65,14.64H24.24c-8.07,0-14.64-6.57-14.64-14.64v-16.06h70.53c.7,0,1.26-.56,1.26-1.26v-31.15c0-.7-.56-1.26-1.26-1.26H9.6v-26.58c0-8.07,6.57-14.64,14.64-14.64h30.93v22.05c0,4.18,3.4,7.59,7.58,7.59h22.06v61.31Z"/>
      <path class="cls-3" d="m84.81,32.17v61.31c0,8.07-6.57,14.64-14.65,14.64H24.24c-8.07,0-14.64-6.57-14.64-14.64v-16.06h70.53c.7,0,1.26-.56,1.26-1.26v-31.15c0-.7-.56-1.26-1.26-1.26H9.6v-26.58c0-8.07,6.57-14.64,14.64-14.64h30.93v22.05c0,4.18,3.4,7.59,7.58,7.59h22.06Z"/>
      <path class="cls-1" d="m8.48,46.28c-.05,0-.09,0-.14,0-.44,0-.86.06-1.27.17-2.54.63-4.44,2.93-4.44,5.67v25.15c1.2-1.17,2.74-1.97,4.44-2.26.41-.07.84-.11,1.27-.12h70.53v-28.62H8.48Z"/>
      <g>
        <path class="cls-3" d="m26.52,51.52h-5.34c-.5,0-.93.43-.93.95v14.95c0,.53.43.96.93.96.53,0,.96-.43.96-.96v-5.07h4.07c3.56,0,6.58-1.86,6.58-5.47v-.05c0-3.3-2.49-5.31-6.27-5.31Zm4.35,5.43c0,2.2-1.82,3.68-4.59,3.68h-4.14v-7.37h4.23c2.71,0,4.5,1.25,4.5,3.64v.05Z"/>
        <path class="cls-3" d="m42.04,51.52h-4.88c-.5,0-.93.43-.93.95v14.84c0,.52.43.95.93.95h4.88c5.27,0,8.9-3.66,8.9-8.37v-.05c0-4.71-3.63-8.32-8.9-8.32Zm6.94,8.42c0,3.71-2.7,6.58-6.94,6.58h-3.92v-13.26h3.92c4.24,0,6.94,2.92,6.94,6.63v.05Z"/>
        <path class="cls-3" d="m67.09,52.38c0,.48-.38.88-.86.88h-9.4v5.98h8.32c.48,0,.86.39.86.86s-.38.87-.86.87h-8.32v6.45c0,.53-.43.96-.96.96-.5,0-.93-.43-.93-.96v-14.95c0-.52.43-.95.93-.95h10.36c.48,0,.86.38.86.86Z"/>
      </g>
      <g>
        <path class="cls-1" d="m103.15,37.25v4.05c0,.75.3,1.3.89,1.64.59.34,1.26.51,1.99.51.38,0,.94-.08,1.68-.25.73-.17,1.17-.26,1.31-.28.17,0,.29.08.37.23.38,2.03.58,3.16.58,3.38,0,.14-.08.25-.26.35-1.14.58-2.64.87-4.52.86-.85,0-1.64-.1-2.36-.3-.72-.2-1.29-.46-1.73-.78-.44-.32-.82-.68-1.17-1.09-.34-.41-.6-.8-.76-1.2-.17-.39-.3-.75-.4-1.08-.1-.32-.16-.59-.17-.79l-.03-.29v-5.87c0-.07,0-.17.03-.31.02-.14.08-.4.19-.78s.24-.74.4-1.09.41-.73.75-1.17c.34-.43.73-.8,1.17-1.1s1.01-.56,1.73-.78c.72-.21,1.5-.32,2.36-.32,1.87,0,3.38.29,4.52.87.17.09.26.2.26.35,0,.23-.19,1.36-.58,3.38-.07.15-.19.23-.37.23-.14-.02-.57-.11-1.31-.28-.74-.17-1.29-.25-1.68-.25-.73,0-1.4.17-1.99.51-.59.34-.89.89-.89,1.64Z"/>
        <path class="cls-1" d="m118.85,47.74c-.85,0-1.64-.1-2.34-.3-.71-.2-1.28-.46-1.7-.78-.43-.32-.8-.68-1.13-1.09-.32-.41-.56-.8-.71-1.2s-.27-.75-.36-1.08c-.09-.32-.14-.59-.16-.79v-11.02c0-.32.17-.47.5-.47h3.55c.12,0,.23.04.33.13.1.08.15.2.15.35v10.15c0,1.2.63,1.81,1.89,1.81s1.89-.6,1.89-1.81v-10.15c0-.14.05-.25.14-.34.09-.09.2-.13.32-.13h3.55c.33,0,.5.16.5.47v10.72c0,.15-.01.35-.04.6-.03.25-.16.69-.4,1.33-.24.64-.56,1.2-.96,1.68-.4.48-1.04.92-1.92,1.32-.88.4-1.91.6-3.09.6Z"/>
        <path class="cls-1" d="m135.51,47.06l-1.49-3.04c-.12.02-.32.03-.6.03h-1.03v3.01c0,.14-.05.25-.15.34-.1.09-.21.13-.33.13h-3.55c-.33,0-.5-.16-.5-.47v-15.55c0-.15.05-.28.16-.37s.22-.13.34-.13h5.05c.85,0,1.63.1,2.34.3.71.2,1.28.46,1.7.79.43.33.8.68,1.13,1.08.33.39.56.79.71,1.19s.27.76.35,1.09c.08.33.13.59.13.79l.03.29v1.96c0,.2-.02.45-.06.76s-.23.82-.55,1.55c-.33.73-.77,1.33-1.34,1.82l2.18,4.43c0,.32-.17.47-.5.47h-3.52c-.2,0-.36-.16-.5-.47Zm-2.09-11.75h-1.03v4.43h1.03c1.22,0,1.83-.61,1.83-1.82v-.81c0-1.2-.61-1.81-1.83-1.81Z"/>
        <path class="cls-1" d="m149.48,47.06l-1.49-3.04c-.12.02-.32.03-.6.03h-1.03v3.01c0,.14-.05.25-.15.34-.1.09-.21.13-.33.13h-3.55c-.33,0-.5-.16-.5-.47v-15.55c0-.15.05-.28.16-.37s.22-.13.34-.13h5.05c.85,0,1.63.1,2.34.3.71.2,1.28.46,1.7.79.43.33.8.68,1.13,1.08.33.39.56.79.71,1.19s.27.76.35,1.09c.08.33.13.59.13.79l.03.29v1.96c0,.2-.02.45-.06.76s-.23.82-.55,1.55c-.33.73-.77,1.33-1.34,1.82l2.18,4.43c0,.32-.17.47-.5.47h-3.52c-.2,0-.36-.16-.5-.47Zm-2.09-11.75h-1.03v4.43h1.03c1.22,0,1.83-.61,1.83-1.82v-.81c0-1.2-.61-1.81-1.83-1.81Z"/>
        <path class="cls-1" d="m155.82,47.06v-15.55c0-.14.05-.25.15-.35s.21-.15.33-.15h3.55c.12,0,.23.04.34.13.11.08.16.21.16.37v15.55c0,.32-.17.47-.5.47h-3.55c-.12,0-.23-.04-.33-.13-.1-.09-.15-.2-.15-.34Zm5.93-20.75l-1.93,3.05c-.2.32-.4.47-.6.47h-2.18c-.33,0-.5-.16-.5-.47l1.31-3.05c.15-.33.35-.5.58-.5h2.86c.12,0,.23.05.33.15.1.1.15.22.15.35Z"/>
        <path class="cls-1" d="m167.41,37.25v4.05c0,.75.3,1.3.89,1.64.59.34,1.26.51,1.99.51.38,0,.94-.08,1.68-.25.73-.17,1.17-.26,1.31-.28.17,0,.29.08.37.23.38,2.03.58,3.16.58,3.38,0,.14-.08.25-.26.35-1.14.58-2.64.87-4.52.86-.85,0-1.64-.1-2.36-.3-.72-.2-1.29-.46-1.73-.78-.44-.32-.82-.68-1.17-1.09-.34-.41-.6-.8-.76-1.2-.17-.39-.3-.75-.4-1.08-.1-.32-.16-.59-.17-.79l-.03-.29v-5.87c0-.07,0-.17.03-.31.02-.14.08-.4.19-.78s.24-.74.4-1.09.41-.73.75-1.17c.34-.43.73-.8,1.17-1.1s1.01-.56,1.73-.78c.72-.21,1.5-.32,2.36-.32,1.87,0,3.38.29,4.52.87.17.09.26.2.26.35,0,.23-.19,1.36-.58,3.38-.07.15-.19.23-.37.23-.14-.02-.57-.11-1.31-.28-.74-.17-1.29-.25-1.68-.25-.73,0-1.4.17-1.99.51-.59.34-.89.89-.89,1.64Z"/>
        <path class="cls-1" d="m183.11,47.74c-.85,0-1.64-.1-2.34-.3-.71-.2-1.28-.46-1.7-.78-.43-.32-.8-.68-1.13-1.09-.32-.41-.56-.8-.71-1.2s-.27-.75-.36-1.08c-.09-.32-.14-.59-.16-.79v-11.02c0-.32.17-.47.5-.47h3.55c.12,0,.23.04.33.13.1.08.15.2.15.35v10.15c0,1.2.63,1.81,1.89,1.81s1.89-.6,1.89-1.81v-10.15c0-.14.05-.25.14-.34.09-.09.2-.13.32-.13h3.55c.33,0,.5.16.5.47v10.72c0,.15-.01.35-.04.6-.03.25-.16.69-.4,1.33-.24.64-.56,1.2-.96,1.68-.4.48-1.04.92-1.92,1.32-.88.4-1.91.6-3.09.6Z"/>
        <path class="cls-1" d="m196.91,31.49v12.2h5.78c.14,0,.25.05.34.14.09.09.13.21.13.33v2.88c0,.33-.16.5-.47.5h-9.79c-.12,0-.23-.04-.34-.13-.11-.08-.16-.21-.16-.37v-15.55c0-.32.17-.47.5-.47h3.54c.12,0,.23.04.33.13.1.09.15.2.15.34Z"/>
        <path class="cls-1" d="m211.39,30.79c.85,0,1.64.1,2.34.3.71.2,1.28.46,1.7.79.43.33.8.68,1.13,1.08.32.39.56.79.71,1.2.15.41.27.77.35,1.09.08.32.14.59.15.8v6.16c0,.15-.01.35-.04.6-.03.25-.16.69-.39,1.33-.24.64-.55,1.2-.96,1.68-.4.48-1.04.92-1.92,1.32-.88.4-1.91.6-3.09.6-.85,0-1.64-.1-2.35-.3-.71-.2-1.28-.46-1.71-.78-.43-.32-.8-.68-1.13-1.09-.33-.41-.56-.8-.71-1.2s-.27-.75-.35-1.08c-.08-.32-.14-.59-.15-.79v-6.16c0-.15.01-.35.04-.6.03-.25.16-.69.39-1.33.23-.64.55-1.2.96-1.68.41-.48,1.05-.92,1.92-1.33.88-.41,1.91-.61,3.09-.61Zm0,12.66c1.23,0,1.84-.61,1.84-1.82v-4.71c0-1.2-.61-1.81-1.84-1.81-1.23,0-1.84.6-1.84,1.81v4.71c0,1.21.61,1.82,1.84,1.82Z"/>
        <path class="cls-1" d="m234.64,47.06l-.5-1.68h-4.71l-.5,1.68c-.09.32-.24.47-.47.47h-3.54c-.12,0-.23-.04-.33-.13-.1-.08-.15-.2-.15-.35l4.71-15.55c.08-.33.24-.5.47-.5h4.36c.23,0,.39.17.47.5l4.67,15.55c0,.14-.05.25-.15.34-.1.09-.21.13-.33.13h-3.55c-.23,0-.39-.16-.47-.47Zm-2.83-9.74l-1.18,3.95h2.31l-1.13-3.95Z"/>
        <path class="cls-1" d="m254.06,31.51v15.55c0,.14-.05.25-.15.34-.1.09-.21.13-.33.13h-3.68c-.21,0-.41-.16-.6-.47l-3.96-7.39v7.39c0,.14-.05.25-.15.34-.1.09-.21.13-.33.13h-3.55c-.33,0-.5-.16-.5-.47v-15.55c0-.15.05-.28.16-.37s.22-.13.34-.13h3.57c.21,0,.41.17.6.5l4.04,7.54v-7.54c0-.15.05-.28.16-.37.11-.09.22-.13.34-.13h3.55c.12,0,.23.05.33.15.1.1.15.22.15.35Z"/>
        <path class="cls-1" d="m261.19,43.53h5.76c.14,0,.25.05.34.14.09.09.13.2.13.33v3.04c0,.33-.16.5-.47.5h-9.79c-.12,0-.23-.04-.34-.13s-.16-.21-.16-.37v-15.53c0-.15.05-.28.16-.37s.22-.13.34-.13h9.79c.32,0,.47.17.47.5v3.04c0,.12-.04.23-.13.33-.09.1-.2.15-.35.15h-5.76v2.52h4.64c.32,0,.47.17.47.5v2.73c0,.12-.04.23-.13.32-.08.09-.2.14-.35.14h-4.64v2.29Z"/>
        <path class="cls-1" d="m275.79,42.98l-2.28,4.11c-.14.32-.3.47-.5.47h-3.52c-.33,0-.5-.16-.5-.47l4.55-7.76-4.55-7.79c0-.14.05-.25.15-.35.1-.1.21-.15.33-.15h3.45c.21,0,.41.17.6.5l2.28,3.93,2.28-3.93c.2-.33.4-.5.6-.5h3.43c.12,0,.23.05.33.14.1.09.15.21.15.36l-4.54,7.79,4.54,7.76c0,.32-.17.47-.5.47h-3.51c-.2,0-.36-.16-.5-.47l-2.28-4.11Z"/>
        <path class="cls-1" d="m293.83,47.06l-.5-1.68h-4.71l-.5,1.68c-.09.32-.24.47-.47.47h-3.54c-.12,0-.23-.04-.33-.13-.1-.08-.15-.2-.15-.35l4.71-15.55c.08-.33.24-.5.47-.5h4.36c.23,0,.39.17.47.5l4.67,15.55c0,.14-.05.25-.15.34-.1.09-.21.13-.33.13h-3.55c-.23,0-.39-.16-.47-.47Zm-2.83-9.74l-1.18,3.95h2.31l-1.13-3.95Z"/>
        <path class="cls-1" d="m300.51,31.01h4.88c.85,0,1.64.1,2.34.3.71.2,1.28.46,1.71.79.43.33.81.68,1.13,1.08.32.39.56.79.7,1.19.15.4.26.76.35,1.09.09.33.13.59.13.79l.03.29v5.46c0,.15-.01.35-.04.6-.03.25-.16.69-.39,1.33-.24.64-.56,1.2-.96,1.68-.41.48-1.04.92-1.92,1.33-.87.4-1.9.6-3.1.6h-4.88c-.33,0-.5-.16-.5-.47v-15.55c0-.15.05-.28.16-.37s.22-.13.34-.13Zm4.88,4.3h-.86v7.92h.86c1.22,0,1.84-.6,1.84-1.81v-4.3c0-1.2-.62-1.81-1.84-1.81Z"/>
        <path class="cls-1" d="m320.29,30.79c.85,0,1.64.1,2.34.3.71.2,1.28.46,1.7.79.43.33.8.68,1.13,1.08.32.39.56.79.71,1.2.15.41.27.77.35,1.09.08.32.14.59.15.8v6.16c0,.15-.01.35-.04.6-.03.25-.16.69-.39,1.33-.24.64-.55,1.2-.96,1.68-.4.48-1.04.92-1.92,1.32-.88.4-1.91.6-3.09.6-.85,0-1.64-.1-2.35-.3-.71-.2-1.28-.46-1.71-.78-.43-.32-.8-.68-1.13-1.09-.33-.41-.56-.8-.71-1.2s-.27-.75-.35-1.08c-.08-.32-.14-.59-.15-.79v-6.16c0-.15.01-.35.04-.6.03-.25.16-.69.39-1.33.23-.64.55-1.2.96-1.68.41-.48,1.05-.92,1.92-1.33.88-.41,1.91-.61,3.09-.61Zm0,12.66c1.23,0,1.84-.61,1.84-1.82v-4.71c0-1.2-.61-1.81-1.84-1.81-1.23,0-1.84.6-1.84,1.81v4.71c0,1.21.61,1.82,1.84,1.82Z"/>
        <path class="cls-1" d="m138.4,68.35v4.05c0,.75.3,1.3.89,1.64.59.34,1.26.51,1.99.51.38,0,.94-.08,1.68-.25.73-.17,1.17-.26,1.31-.28.17,0,.29.08.37.23.38,2.03.58,3.16.58,3.38,0,.14-.08.25-.26.35-1.14.58-2.64.87-4.52.86-.85,0-1.64-.1-2.36-.3-.72-.2-1.29-.46-1.73-.78-.44-.32-.82-.68-1.17-1.09-.34-.41-.6-.8-.76-1.2-.17-.39-.3-.75-.4-1.08-.1-.32-.16-.59-.17-.79l-.03-.29v-5.87c0-.07,0-.17.03-.31.02-.14.08-.4.19-.78s.24-.74.4-1.09.41-.73.75-1.17c.34-.43.73-.8,1.17-1.1s1.01-.56,1.73-.78c.72-.21,1.5-.32,2.36-.32,1.87,0,3.38.29,4.52.87.17.09.26.2.26.35,0,.23-.19,1.36-.58,3.38-.07.15-.19.23-.37.23-.14-.02-.57-.11-1.31-.28-.74-.17-1.29-.25-1.68-.25-.73,0-1.4.17-1.99.51-.59.34-.89.89-.89,1.64Z"/>
        <path class="cls-1" d="m153.84,61.89c.85,0,1.64.1,2.34.3.71.2,1.28.46,1.7.79.43.33.8.68,1.13,1.08.32.39.56.79.71,1.2.15.41.27.77.35,1.09.08.32.14.59.15.8v6.16c0,.15-.01.35-.04.6-.03.25-.16.69-.39,1.33-.24.64-.55,1.2-.96,1.68-.4.48-1.04.92-1.92,1.32-.88.4-1.91.6-3.09.6-.85,0-1.64-.1-2.35-.3-.71-.2-1.28-.46-1.71-.78-.43-.32-.8-.68-1.13-1.09-.33-.41-.56-.8-.71-1.2s-.27-.75-.35-1.08c-.08-.32-.14-.59-.15-.79v-6.16c0-.15.01-.35.04-.6.03-.25.16-.69.39-1.33.23-.64.55-1.2.96-1.68.41-.48,1.05-.92,1.92-1.33.88-.41,1.91-.61,3.09-.61Zm0,12.66c1.23,0,1.84-.61,1.84-1.82v-4.71c0-1.2-.61-1.81-1.84-1.81-1.23,0-1.84.6-1.84,1.81v4.71c0,1.21.61,1.82,1.84,1.82Z"/>
        <path class="cls-1" d="m171.65,75.06h-2.31c-.21,0-.41-.15-.6-.46l-1.63-4.02v7.58c0,.14-.05.25-.15.34-.1.09-.21.13-.33.13h-3.55c-.33,0-.5-.16-.5-.47v-15.55c0-.15.05-.28.16-.37s.22-.13.34-.13h3.57c.21,0,.41.17.6.5l3.23,7.97,3.23-7.97c.2-.33.4-.5.6-.5h3.56c.12,0,.23.04.34.13.11.08.16.21.16.37v15.55c0,.32-.17.47-.5.47h-3.54c-.12,0-.23-.04-.33-.13-.1-.08-.15-.2-.15-.35v-7.58l-1.63,4.02c-.19.31-.39.46-.6.46Z"/>
        <path class="cls-1" d="m188.06,73.44c1.14.89,2.47,1.34,4.01,1.35,1.15,0,1.73-.31,1.73-.92,0-.38-.27-.71-.81-.97-.54-.26-1.2-.5-1.97-.72s-1.54-.49-2.31-.83-1.42-.87-1.97-1.6c-.54-.73-.81-1.64-.81-2.73,0-1.72.56-3,1.67-3.85,1.11-.85,2.55-1.28,4.32-1.28,1.05,0,1.93.08,2.63.24s1.49.46,2.36.92c.15.07.23.18.23.35,0,.05-.03.16-.08.32l-1.13,2.54c-.08.15-.2.24-.33.24l-.32-.08c-.85-.3-1.9-.45-3.13-.45-1.14,0-1.7.28-1.7.83,0,.32.19.58.58.79.38.21.87.38,1.45.5s1.22.32,1.9.58c.68.26,1.32.57,1.9.92s1.07.88,1.46,1.6c.39.72.58,1.57.58,2.55,0,.28-.03.58-.1.91-.06.33-.22.74-.47,1.26s-.59.97-1.01,1.38-1.05.76-1.88,1.06c-.83.3-1.8.47-2.92.51-.1,0-.24,0-.4-.01-.17,0-.5-.05-1-.12-.5-.07-.98-.17-1.43-.29-.46-.12-.97-.32-1.55-.59-.58-.27-1.07-.6-1.49-.98-.15-.14-.23-.27-.23-.4,0-.08.03-.17.08-.26l1.5-2.6c.08-.15.22-.24.41-.24.09,0,.17.03.24.08Z"/>
        <path class="cls-1" d="m206.8,78.84c-.85,0-1.64-.1-2.34-.3-.71-.2-1.28-.46-1.7-.78-.43-.32-.8-.68-1.13-1.09-.32-.41-.56-.8-.71-1.2s-.27-.75-.36-1.08c-.09-.32-.14-.59-.16-.79v-11.02c0-.32.17-.47.5-.47h3.55c.12,0,.23.04.33.13.1.08.15.2.15.35v10.15c0,1.2.63,1.81,1.89,1.81s1.89-.6,1.89-1.81v-10.15c0-.14.05-.25.14-.34.09-.09.2-.13.32-.13h3.55c.33,0,.5.16.5.47v10.72c0,.15-.01.35-.04.6-.03.25-.16.69-.4,1.33-.24.64-.56,1.2-.96,1.68-.4.48-1.04.92-1.92,1.32-.88.4-1.91.6-3.09.6Z"/>
        <path class="cls-1" d="m220.27,68.35v4.05c0,.75.3,1.3.89,1.64.59.34,1.26.51,1.99.51.38,0,.94-.08,1.68-.25.73-.17,1.17-.26,1.31-.28.17,0,.29.08.37.23.38,2.03.58,3.16.58,3.38,0,.14-.08.25-.26.35-1.14.58-2.64.87-4.52.86-.85,0-1.64-.1-2.36-.3-.72-.2-1.29-.46-1.73-.78-.44-.32-.82-.68-1.17-1.09-.34-.41-.6-.8-.76-1.2-.17-.39-.3-.75-.4-1.08-.1-.32-.16-.59-.17-.79l-.03-.29v-5.87c0-.07,0-.17.03-.31.02-.14.08-.4.19-.78s.24-.74.4-1.09.41-.73.75-1.17c.34-.43.73-.8,1.17-1.1s1.01-.56,1.73-.78c.72-.21,1.5-.32,2.36-.32,1.87,0,3.38.29,4.52.87.17.09.26.2.26.35,0,.23-.19,1.36-.58,3.38-.07.15-.19.23-.37.23-.14-.02-.57-.11-1.31-.28-.74-.17-1.29-.25-1.68-.25-.73,0-1.4.17-1.99.51-.59.34-.89.89-.89,1.64Z"/>
        <path class="cls-1" d="m234.09,74.63h5.76c.14,0,.25.05.34.14.09.09.13.2.13.33v3.04c0,.33-.16.5-.47.5h-9.79c-.12,0-.23-.04-.34-.13s-.16-.21-.16-.37v-15.53c0-.15.05-.28.16-.37s.22-.13.34-.13h9.79c.32,0,.47.17.47.5v3.04c0,.12-.04.23-.13.33-.09.1-.2.15-.35.15h-5.76v2.52h4.64c.32,0,.47.17.47.5v2.73c0,.12-.04.23-.13.32-.08.09-.2.14-.35.14h-4.64v2.29Z"/>
        <path class="cls-1" d="m244.78,73.44c1.14.89,2.47,1.34,4.01,1.35,1.15,0,1.73-.31,1.73-.92,0-.38-.27-.71-.81-.97-.54-.26-1.2-.5-1.97-.72s-1.54-.49-2.31-.83-1.42-.87-1.97-1.6c-.54-.73-.81-1.64-.81-2.73,0-1.72.56-3,1.67-3.85,1.11-.85,2.55-1.28,4.32-1.28,1.05,0,1.93.08,2.63.24s1.49.46,2.36.92c.15.07.23.18.23.35,0,.05-.03.16-.08.32l-1.13,2.54c-.08.15-.2.24-.33.24l-.32-.08c-.85-.3-1.9-.45-3.13-.45-1.14,0-1.7.28-1.7.83,0,.32.19.58.58.79.38.21.87.38,1.45.5s1.22.32,1.9.58c.68.26,1.32.57,1.9.92s1.07.88,1.46,1.6c.39.72.58,1.57.58,2.55,0,.28-.03.58-.1.91-.06.33-.22.74-.47,1.26s-.59.97-1.01,1.38-1.05.76-1.88,1.06c-.83.3-1.8.47-2.92.51-.1,0-.24,0-.4-.01-.17,0-.5-.05-1-.12-.5-.07-.98-.17-1.43-.29-.46-.12-.97-.32-1.55-.59-.58-.27-1.07-.6-1.49-.98-.15-.14-.23-.27-.23-.4,0-.08.03-.17.08-.26l1.5-2.6c.08-.15.22-.24.41-.24.09,0,.17.03.24.08Z"/>
        <path class="cls-1" d="m258.96,73.44c1.14.89,2.47,1.34,4.01,1.35,1.15,0,1.73-.31,1.73-.92,0-.38-.27-.71-.81-.97-.54-.26-1.2-.5-1.97-.72s-1.54-.49-2.31-.83-1.42-.87-1.97-1.6c-.54-.73-.81-1.64-.81-2.73,0-1.72.56-3,1.67-3.85,1.11-.85,2.55-1.28,4.32-1.28,1.05,0,1.93.08,2.63.24s1.49.46,2.36.92c.15.07.23.18.23.35,0,.05-.03.16-.08.32l-1.13,2.54c-.08.15-.2.24-.33.24l-.32-.08c-.85-.3-1.9-.45-3.13-.45-1.14,0-1.7.28-1.7.83,0,.32.19.58.58.79.38.21.87.38,1.45.5s1.22.32,1.9.58c.68.26,1.32.57,1.9.92s1.07.88,1.46,1.6c.39.72.58,1.57.58,2.55,0,.28-.03.58-.1.91-.06.33-.22.74-.47,1.26s-.59.97-1.01,1.38-1.05.76-1.88,1.06c-.83.3-1.8.47-2.92.51-.1,0-.24,0-.4-.01-.17,0-.5-.05-1-.12-.5-.07-.98-.17-1.43-.29-.46-.12-.97-.32-1.55-.59-.58-.27-1.07-.6-1.49-.98-.15-.14-.23-.27-.23-.4,0-.08.03-.17.08-.26l1.5-2.6c.08-.15.22-.24.41-.24.09,0,.17.03.24.08Z"/>
        <path class="cls-1" d="m277.45,61.89c.85,0,1.64.1,2.34.3.71.2,1.28.46,1.7.79.43.33.8.68,1.13,1.08.32.39.56.79.71,1.2.15.41.27.77.35,1.09.08.32.14.59.15.8v6.16c0,.15-.01.35-.04.6-.03.25-.16.69-.39,1.33-.24.64-.55,1.2-.96,1.68-.4.48-1.04.92-1.92,1.32-.88.4-1.91.6-3.09.6-.85,0-1.64-.1-2.35-.3-.71-.2-1.28-.46-1.71-.78-.43-.32-.8-.68-1.13-1.09-.33-.41-.56-.8-.71-1.2s-.27-.75-.35-1.08c-.08-.32-.14-.59-.15-.79v-6.16c0-.15.01-.35.04-.6.03-.25.16-.69.39-1.33.23-.64.55-1.2.96-1.68.41-.48,1.05-.92,1.92-1.33.88-.41,1.91-.61,3.09-.61Zm0,12.66c1.23,0,1.84-.61,1.84-1.82v-4.71c0-1.2-.61-1.81-1.84-1.81-1.23,0-1.84.6-1.84,1.81v4.71c0,1.21.61,1.82,1.84,1.82Z"/>
        <path class="cls-1" d="m286.94,78.11c-.49-.49-.74-1.07-.74-1.75s.25-1.27.74-1.76c.49-.49,1.08-.74,1.76-.74s1.27.25,1.76.74c.49.49.74,1.08.74,1.76s-.25,1.27-.74,1.75c-.49.49-1.08.73-1.76.73s-1.27-.24-1.76-.73Zm3.94-15.5v3.14l-.32,6.75c0,.14-.05.25-.14.34-.09.09-.2.13-.32.13h-3c-.33,0-.5-.16-.5-.47l-.23-6.75v-3.14c0-.15.05-.28.15-.37s.22-.13.35-.13h3.54c.12,0,.23.05.33.15.1.1.15.22.15.35Z"/>
      </g>
    </g>
  </g>
</svg>