<svg id="Camada_1" data-name="Camada 1" xmlns="http://www.w3.org/2000/svg" viewBox="0 0 32 32"><defs><style>.cls-1{fill:#f1f2f2;}</style></defs><title>pinterest</title><path class="cls-1" d="M18,22.76c-1.83-.14-2.59-1.05-4-1.92C13.14,25,12.17,28.93,9.33,31c-.89-6.24,1.29-10.93,2.29-15.91-1.71-2.89.21-8.72,3.84-7.28,4.46,1.76-3.87,10.76,1.72,11.88C23,20.87,25.4,9.57,21.78,5.89c-5.23-5.3-15.22-.12-14,7.48.3,1.85,2.22,2.42.77,5-3.35-.74-4.35-3.38-4.22-6.9C4.55,5.69,9.52,1.66,14.5,1.1c6.3-.7,12.22,2.32,13,8.24C28.45,16,24.69,23.28,18,22.76Z"/></svg>