<svg id="Camada_1" data-name="Camada 1" xmlns="http://www.w3.org/2000/svg" viewBox="0 0 32 32"><defs><style>.cls-1{fill:#f1f2f2;fill-rule:evenodd;}</style></defs><title>envelope</title><path class="cls-1" d="M1.58,6.51A3.77,3.77,0,0,0,1,8.5v15a3.64,3.64,0,0,0,.48,1.8L11,14.7,1.58,6.51Zm18,9.43,9.6,10.73a3.73,3.73,0,0,1-2,.58H4.75a3.73,3.73,0,0,1-2-.58l9.59-10.73,3,2.64a1,1,0,0,0,1.24,0l3-2.64ZM16,16.63,3,5.22a3.76,3.76,0,0,1,1.79-.47h22.5A3.76,3.76,0,0,1,29,5.22L16,16.63ZM31,23.5V8.5a3.69,3.69,0,0,0-.59-2l-9.36,8.2L30.52,25.3A3.74,3.74,0,0,0,31,23.5Z"/></svg>