<svg id="Camada_1" data-name="Camada 1" xmlns="http://www.w3.org/2000/svg" viewBox="0 0 32 32"><defs><style>.cls-1{fill:#f1f2f2;fill-rule:evenodd;}</style></defs><title>whatsapp</title><path class="cls-1" d="M1,31l2.1-7.46A14.81,14.81,0,0,1,1.05,16,15,15,0,1,1,8.7,29ZM11.82,9l-1-.06a1.21,1.21,0,0,0-.83.29,4.5,4.5,0,0,0-1.46,2.23,6.78,6.78,0,0,0,1.57,5.3,15.73,15.73,0,0,0,8.5,6.17,4.18,4.18,0,0,0,3.5-.43,3.14,3.14,0,0,0,1.36-2l.16-.73a.5.5,0,0,0-.28-.56l-3.28-1.51a.49.49,0,0,0-.61.15l-1.29,1.67a.39.39,0,0,1-.42.12A10.14,10.14,0,0,1,12.3,15a.38.38,0,0,1,0-.42l1.23-1.42a.49.49,0,0,0,.08-.53L12.25,9.3a.51.51,0,0,0-.43-.3M9.1,26.3l.45.28A12.43,12.43,0,1,0,3.59,16a12.35,12.35,0,0,0,2,6.71l.3.48-1.2,4.29Z"/></svg>